<?xml version="1.0" encoding="UTF-8"?>
<svg width="1005" height="724" viewBox="0 0 1005 724" fill="none" xmlns="http://www.w3.org/2000/svg">
<rect x="8" y="8" width="989" height="552" rx="18" fill="#3A3A3A" stroke="#BBBBBB" stroke-width="16"/>
<path fill-rule="evenodd" clip-rule="evenodd" d="M562.503 490C561.122 490 560.003 491.119 560.003 492.5V498C559.95 497.129 559.419 496.359 558.623 496L548.423 490.38C547.715 489.933 546.82 489.902 546.083 490.3C545.372 490.751 544.959 491.549 545.003 492.39V503.62C544.96 504.458 545.363 505.257 546.063 505.72C546.366 505.9 546.711 505.996 547.063 506C547.527 505.989 547.981 505.862 548.383 505.63L558.623 500C559.419 499.641 559.95 498.871 560.003 498V503.5C560.003 504.881 561.122 506 562.503 506C563.884 506 565.003 504.881 565.003 503.5V492.5C565.003 491.119 563.884 490 562.503 490ZM547.463 503.88L557.623 498.26H557.653C557.784 498.194 557.892 498.089 557.963 497.96C557.955 497.968 557.935 497.952 557.899 497.92C557.848 497.877 557.766 497.805 557.633 497.73L547.443 492.12C547.338 492.052 547.218 492.011 547.093 492C547.027 492.119 546.996 492.254 547.003 492.39V503.62C546.995 503.754 547.03 503.887 547.103 504C547.232 503.992 547.356 503.951 547.463 503.88ZM562.503 504C562.779 504 563.003 503.776 563.003 503.5V492.5C563.003 492.224 562.779 492 562.503 492C562.227 492 562.003 492.224 562.003 492.5V503.5C562.003 503.776 562.227 504 562.503 504Z" fill="white"/>
<path fill-rule="evenodd" clip-rule="evenodd" d="M469.52 490C468.854 489.995 468.212 490.256 467.739 490.725C467.266 491.195 467 491.834 467 492.5V503.5C467 504.881 468.119 506 469.5 506C470.881 506 472 504.881 472 503.5V498C472.049 498.87 472.577 499.641 473.37 500L483.6 505.63C483.999 505.862 484.449 505.989 484.91 506C485.262 505.997 485.607 505.9 485.91 505.72C486.627 505.269 487.043 504.466 487 503.62V492.39C487.063 491.565 486.682 490.769 486 490.3C485.26 489.901 484.361 489.931 483.65 490.38L473.41 496C472.601 496.348 472.056 497.121 472 498V492.5C472 491.127 470.893 490.011 469.52 490ZM484.93 503.99C484.987 503.876 485.011 503.748 485 503.62V492.38C485.012 492.248 484.984 492.116 484.92 492C484.792 492.021 484.669 492.069 484.56 492.14L474.33 497.72C474.194 497.778 474.079 497.876 474 498C474.116 498.097 474.24 498.184 474.37 498.26L484.56 503.88C484.668 503.956 484.798 503.995 484.93 503.99ZM469.5 504C469.776 504 470 503.776 470 503.5V492.5C470 492.224 469.776 492 469.5 492C469.224 492 469 492.224 469 492.5V503.5C469 503.776 469.224 504 469.5 504Z" fill="white"/>
<path fill-rule="evenodd" clip-rule="evenodd" d="M510.69 488.428L523.58 494.958C525.49 495.928 525.77 497.248 525.77 497.928C525.77 498.608 525.49 499.848 523.58 500.848L510.69 507.358C510.147 507.643 509.544 507.797 508.93 507.808C508.409 507.815 507.896 507.677 507.45 507.408C506.471 506.735 505.922 505.593 506.01 504.408V491.428C505.918 490.242 506.467 489.098 507.45 488.428C508.455 487.857 509.685 487.857 510.69 488.428ZM509.79 505.548L522.67 499.018C523.35 498.668 523.77 498.228 523.77 497.878C523.77 497.528 523.35 497.088 522.67 496.748L509.75 490.218C509.486 490.072 509.191 489.99 508.89 489.978C508.75 489.982 508.612 490.02 508.49 490.088C508.13 490.401 507.949 490.874 508.01 491.348V504.408C507.949 504.882 508.13 505.355 508.49 505.668C508.916 505.848 509.404 505.803 509.79 505.548Z" fill="white"/>
<path d="M127.856 161.2H107.76V206H128.496C130.971 206 133.232 205.744 135.28 205.232C137.328 204.677 139.077 203.888 140.528 202.864C141.979 201.797 143.088 200.496 143.856 198.96C144.667 197.424 145.072 195.653 145.072 193.648C145.072 192.112 144.859 190.768 144.432 189.616C144.005 188.421 143.387 187.397 142.576 186.544C141.808 185.691 140.869 184.965 139.76 184.368C138.693 183.728 137.499 183.173 136.176 182.704C136.987 182.277 137.776 181.765 138.544 181.168C139.355 180.571 140.037 179.888 140.592 179.12C141.189 178.309 141.659 177.371 142 176.304C142.384 175.237 142.576 174.021 142.576 172.656C142.576 169.115 141.253 166.32 138.608 164.272C135.963 162.224 132.379 161.2 127.856 161.2ZM126.256 180.08H115.504V168.176H126.832C129.392 168.176 131.333 168.688 132.656 169.712C134.021 170.693 134.704 172.101 134.704 173.936C134.704 176.027 133.936 177.584 132.4 178.608C130.864 179.589 128.816 180.08 126.256 180.08ZM128.56 199.024H115.504V186.736H127.984C131.099 186.736 133.403 187.269 134.896 188.336C136.432 189.403 137.2 190.896 137.2 192.816C137.2 194.864 136.432 196.421 134.896 197.488C133.36 198.512 131.248 199.024 128.56 199.024ZM161.5 167.024V159.664H153.18V167.024H161.5ZM161.244 206V172.208H153.5V206H161.244ZM177.252 191.856H202.084C202.127 191.472 202.148 191.109 202.148 190.768C202.191 190.427 202.212 190.085 202.212 189.744C202.212 187.312 201.871 184.987 201.188 182.768C200.505 180.549 199.481 178.608 198.116 176.944C196.793 175.28 195.108 173.957 193.06 172.976C191.055 171.995 188.708 171.504 186.02 171.504C183.588 171.504 181.369 171.973 179.364 172.912C177.359 173.851 175.609 175.131 174.116 176.752C172.665 178.331 171.535 180.187 170.724 182.32C169.913 184.453 169.508 186.736 169.508 189.168C169.508 191.813 169.956 194.224 170.852 196.4C171.748 198.533 172.964 200.368 174.5 201.904C176.079 203.44 177.913 204.635 180.004 205.488C182.137 206.341 184.42 206.768 186.852 206.768C189.967 206.768 192.633 206.192 194.852 205.04C197.113 203.888 199.055 202.352 200.676 200.432L196.132 196.4C194.767 197.723 193.38 198.725 191.972 199.408C190.564 200.091 188.9 200.432 186.98 200.432C184.463 200.432 182.329 199.707 180.58 198.256C178.831 196.763 177.721 194.629 177.252 191.856ZM177.188 186.736C177.529 184.091 178.468 181.957 180.004 180.336C181.583 178.672 183.567 177.84 185.956 177.84C187.236 177.84 188.367 178.075 189.348 178.544C190.372 179.013 191.247 179.653 191.972 180.464C192.697 181.232 193.273 182.171 193.7 183.28C194.127 184.347 194.404 185.499 194.532 186.736H177.188ZM217.733 186.928C217.733 184.283 218.437 182.235 219.845 180.784C221.253 179.291 223.088 178.544 225.349 178.544C227.653 178.544 229.424 179.269 230.661 180.72C231.941 182.128 232.581 184.155 232.581 186.8V206H240.325V184.496C240.325 180.528 239.28 177.371 237.189 175.024C235.098 172.677 232.133 171.504 228.293 171.504C226.97 171.504 225.776 171.675 224.709 172.016C223.685 172.315 222.725 172.741 221.829 173.296C220.976 173.851 220.208 174.491 219.525 175.216C218.885 175.899 218.288 176.645 217.733 177.456V172.208H209.989V206H217.733V186.928ZM262.635 197.04L253.547 172.208H245.227L259.115 206.256H266.091L279.915 172.208H271.787L262.635 197.04ZM290.44 191.856H315.272C315.314 191.472 315.336 191.109 315.336 190.768C315.378 190.427 315.4 190.085 315.4 189.744C315.4 187.312 315.058 184.987 314.376 182.768C313.693 180.549 312.669 178.608 311.304 176.944C309.981 175.28 308.296 173.957 306.248 172.976C304.242 171.995 301.896 171.504 299.208 171.504C296.776 171.504 294.557 171.973 292.552 172.912C290.546 173.851 288.797 175.131 287.304 176.752C285.853 178.331 284.722 180.187 283.911 182.32C283.101 184.453 282.696 186.736 282.696 189.168C282.696 191.813 283.144 194.224 284.04 196.4C284.936 198.533 286.152 200.368 287.688 201.904C289.266 203.44 291.101 204.635 293.192 205.488C295.325 206.341 297.608 206.768 300.04 206.768C303.154 206.768 305.821 206.192 308.04 205.04C310.301 203.888 312.242 202.352 313.864 200.432L309.32 196.4C307.954 197.723 306.568 198.725 305.16 199.408C303.752 200.091 302.088 200.432 300.168 200.432C297.65 200.432 295.517 199.707 293.768 198.256C292.018 196.763 290.909 194.629 290.44 191.856ZM290.376 186.736C290.717 184.091 291.656 181.957 293.192 180.336C294.77 178.672 296.754 177.84 299.144 177.84C300.424 177.84 301.554 178.075 302.536 178.544C303.56 179.013 304.434 179.653 305.16 180.464C305.885 181.232 306.461 182.171 306.888 183.28C307.314 184.347 307.592 185.499 307.72 186.736H290.376ZM330.921 186.928C330.921 184.283 331.625 182.235 333.033 180.784C334.441 179.291 336.275 178.544 338.537 178.544C340.841 178.544 342.611 179.269 343.849 180.72C345.129 182.128 345.769 184.155 345.769 186.8V206H353.513V184.496C353.513 180.528 352.467 177.371 350.377 175.024C348.286 172.677 345.321 171.504 341.481 171.504C340.158 171.504 338.963 171.675 337.897 172.016C336.873 172.315 335.913 172.741 335.017 173.296C334.163 173.851 333.395 174.491 332.713 175.216C332.073 175.899 331.475 176.645 330.921 177.456V172.208H323.177V206H330.921V186.928ZM371.312 167.024V159.664H362.992V167.024H371.312ZM371.056 206V172.208H363.312V206H371.056ZM414.393 206V159.28H406.649V177.456C405.411 175.877 403.875 174.491 402.041 173.296C400.206 172.101 397.902 171.504 395.128 171.504C393.123 171.504 391.161 171.888 389.241 172.656C387.363 173.424 385.699 174.576 384.249 176.112C382.798 177.605 381.625 179.44 380.729 181.616C379.875 183.792 379.449 186.288 379.449 189.104C379.449 191.92 379.897 194.416 380.793 196.592C381.689 198.768 382.862 200.624 384.312 202.16C385.763 203.653 387.427 204.784 389.305 205.552C391.182 206.32 393.123 206.704 395.128 206.704C397.859 206.704 400.142 206.085 401.977 204.848C403.854 203.611 405.411 202.117 406.649 200.368V206H414.393ZM406.777 189.104C406.777 190.768 406.499 192.261 405.945 193.584C405.433 194.907 404.729 196.059 403.833 197.04C402.937 197.979 401.891 198.704 400.697 199.216C399.502 199.728 398.265 199.984 396.985 199.984C395.662 199.984 394.403 199.728 393.208 199.216C392.057 198.704 391.033 197.979 390.137 197.04C389.241 196.101 388.537 194.971 388.025 193.648C387.513 192.283 387.257 190.768 387.257 189.104C387.257 187.397 387.513 185.883 388.025 184.56C388.537 183.195 389.241 182.043 390.137 181.104C391.033 180.165 392.057 179.461 393.208 178.992C394.403 178.48 395.662 178.224 396.985 178.224C398.265 178.224 399.502 178.48 400.697 178.992C401.891 179.504 402.937 180.251 403.833 181.232C404.729 182.171 405.433 183.301 405.945 184.624C406.499 185.947 406.777 187.44 406.777 189.104ZM458.228 189.104C458.228 186.672 457.78 184.389 456.884 182.256C455.988 180.123 454.729 178.267 453.108 176.688C451.529 175.067 449.63 173.808 447.412 172.912C445.236 171.973 442.846 171.504 440.244 171.504C437.641 171.504 435.23 171.973 433.012 172.912C430.836 173.851 428.937 175.131 427.316 176.752C425.737 178.331 424.478 180.208 423.54 182.384C422.644 184.517 422.196 186.8 422.196 189.232C422.196 191.664 422.644 193.947 423.54 196.08C424.436 198.171 425.673 200.027 427.252 201.648C428.873 203.227 430.772 204.485 432.948 205.424C435.166 206.32 437.556 206.768 440.116 206.768C442.718 206.768 445.129 206.299 447.348 205.36C449.566 204.421 451.465 203.163 453.044 201.584C454.665 199.963 455.924 198.085 456.819 195.952C457.758 193.819 458.228 191.536 458.228 189.104ZM450.484 189.232C450.484 190.725 450.249 192.133 449.78 193.456C449.31 194.736 448.628 195.867 447.732 196.848C446.836 197.829 445.748 198.619 444.468 199.216C443.23 199.771 441.822 200.048 440.244 200.048C438.75 200.048 437.363 199.771 436.083 199.216C434.846 198.619 433.758 197.829 432.82 196.848C431.924 195.867 431.22 194.715 430.708 193.392C430.196 192.027 429.94 190.597 429.94 189.104C429.94 187.611 430.174 186.224 430.644 184.944C431.113 183.621 431.796 182.469 432.692 181.488C433.588 180.507 434.654 179.739 435.892 179.184C437.172 178.587 438.58 178.288 440.116 178.288C441.652 178.288 443.038 178.587 444.276 179.184C445.556 179.739 446.644 180.528 447.54 181.552C448.478 182.533 449.204 183.685 449.716 185.008C450.228 186.331 450.484 187.739 450.484 189.232ZM509.366 160.88H502.07L482.358 206H490.422L495.03 195.184H516.214L520.758 206H529.078L509.366 160.88ZM513.333 188.208H497.91L505.59 170.288L513.333 188.208Z" fill="white"/>
<path d="M107 371H205.2V348.6H131.6V231H107V371ZM244.475 326.8H322.075C322.208 325.6 322.275 324.467 322.275 323.4C322.408 322.333 322.475 321.267 322.475 320.2C322.475 312.6 321.408 305.333 319.275 298.4C317.142 291.467 313.942 285.4 309.675 280.2C305.542 275 300.275 270.867 293.875 267.8C287.608 264.733 280.275 263.2 271.875 263.2C264.275 263.2 257.342 264.667 251.075 267.6C244.808 270.533 239.342 274.533 234.675 279.6C230.142 284.533 226.608 290.333 224.075 297C221.542 303.667 220.275 310.8 220.275 318.4C220.275 326.667 221.675 334.2 224.475 341C227.275 347.667 231.075 353.4 235.875 358.2C240.808 363 246.542 366.733 253.075 369.4C259.742 372.067 266.875 373.4 274.475 373.4C284.208 373.4 292.542 371.6 299.475 368C306.542 364.4 312.608 359.6 317.675 353.6L303.475 341C299.208 345.133 294.875 348.267 290.475 350.4C286.075 352.533 280.875 353.6 274.875 353.6C267.008 353.6 260.342 351.333 254.875 346.8C249.408 342.133 245.942 335.467 244.475 326.8ZM244.275 310.8C245.342 302.533 248.275 295.867 253.075 290.8C258.008 285.6 264.208 283 271.675 283C275.675 283 279.208 283.733 282.275 285.2C285.475 286.667 288.208 288.667 290.475 291.2C292.742 293.6 294.542 296.533 295.875 300C297.208 303.333 298.075 306.933 298.475 310.8H244.275ZM435.378 371V308.4C435.378 294.267 431.578 283.333 423.978 275.6C416.378 267.733 404.711 263.8 388.978 263.8C380.311 263.8 372.911 264.6 366.778 266.2C360.645 267.8 354.645 269.933 348.778 272.6L355.378 292C360.178 290 364.911 288.4 369.578 287.2C374.245 286 379.578 285.4 385.578 285.4C393.978 285.4 400.378 287.333 404.778 291.2C409.311 295.067 411.578 300.667 411.578 308V310.6C407.445 309.267 403.111 308.2 398.578 307.4C394.178 306.6 388.778 306.2 382.378 306.2C376.245 306.2 370.511 306.933 365.178 308.4C359.978 309.733 355.445 311.8 351.578 314.6C347.845 317.4 344.911 320.933 342.778 325.2C340.645 329.467 339.578 334.467 339.578 340.2V340.6C339.578 345.933 340.578 350.667 342.578 354.8C344.711 358.8 347.445 362.2 350.778 365C354.245 367.667 358.245 369.667 362.778 371C367.311 372.467 372.111 373.2 377.178 373.2C385.178 373.2 391.978 371.733 397.578 368.8C403.178 365.867 407.778 362.267 411.378 358V371H435.378ZM411.978 332.8C411.978 336.133 411.245 339.2 409.778 342C408.445 344.667 406.511 347 403.978 349C401.445 350.867 398.445 352.333 394.978 353.4C391.645 354.467 387.978 355 383.978 355C378.245 355 373.378 353.667 369.378 351C365.511 348.333 363.578 344.467 363.578 339.4V339C363.578 333.533 365.711 329.333 369.978 326.4C374.245 323.467 380.178 322 387.778 322C392.445 322 396.845 322.4 400.978 323.2C405.245 324 408.911 325 411.978 326.2V332.8ZM488.361 330.8C488.361 323.867 489.228 317.8 490.961 312.6C492.694 307.267 495.161 302.867 498.361 299.4C501.561 295.933 505.361 293.333 509.761 291.6C514.161 289.867 519.028 289 524.361 289H525.761V263.4C516.428 263 508.694 265.2 502.561 270C496.428 274.8 491.694 281.2 488.361 289.2V265.4H464.161V371H488.361V330.8ZM570.978 311.4C570.978 303.133 573.178 296.733 577.578 292.2C581.978 287.533 587.711 285.2 594.778 285.2C601.978 285.2 607.511 287.467 611.378 292C615.378 296.4 617.378 302.733 617.378 311V371H641.578V303.8C641.578 291.4 638.311 281.533 631.778 274.2C625.245 266.867 615.978 263.2 603.978 263.2C599.845 263.2 596.111 263.733 592.778 264.8C589.578 265.733 586.578 267.067 583.778 268.8C581.111 270.533 578.711 272.533 576.578 274.8C574.578 276.933 572.711 279.267 570.978 281.8V265.4H546.778V371H570.978V311.4ZM800.202 300.8C800.202 290.933 798.402 281.733 794.802 273.2C791.202 264.667 786.068 257.267 779.402 251C772.868 244.733 765.002 239.867 755.802 236.4C746.735 232.8 736.735 231 725.802 231H673.602V371H725.802C736.735 371 746.735 369.2 755.802 365.6C765.002 362 772.868 357.067 779.402 350.8C786.068 344.533 791.202 337.133 794.802 328.6C798.402 319.933 800.202 310.667 800.202 300.8ZM774.402 301.2C774.402 308.133 773.202 314.533 770.802 320.4C768.535 326.133 765.268 331.133 761.002 335.4C756.868 339.533 751.802 342.8 745.802 345.2C739.802 347.467 733.135 348.6 725.802 348.6H698.202V253.4H725.802C733.135 253.4 739.802 254.6 745.802 257C751.802 259.4 756.868 262.733 761.002 267C765.268 271.267 768.535 276.333 770.802 282.2C773.202 287.933 774.402 294.267 774.402 301.2ZM934.047 318.2C934.047 310.6 932.647 303.467 929.847 296.8C927.047 290.133 923.114 284.333 918.047 279.4C913.114 274.333 907.18 270.4 900.247 267.6C893.447 264.667 885.98 263.2 877.847 263.2C869.714 263.2 862.18 264.667 855.247 267.6C848.447 270.533 842.514 274.533 837.447 279.6C832.514 284.533 828.58 290.4 825.647 297.2C822.847 303.867 821.447 311 821.447 318.6C821.447 326.2 822.847 333.333 825.647 340C828.447 346.533 832.314 352.333 837.247 357.4C842.314 362.333 848.247 366.267 855.047 369.2C861.98 372 869.447 373.4 877.447 373.4C885.58 373.4 893.114 371.933 900.047 369C906.98 366.067 912.914 362.133 917.847 357.2C922.914 352.133 926.847 346.267 929.647 339.6C932.58 332.933 934.047 325.8 934.047 318.2ZM909.847 318.6C909.847 323.267 909.114 327.667 907.647 331.8C906.18 335.8 904.047 339.333 901.247 342.4C898.447 345.467 895.047 347.933 891.047 349.8C887.18 351.533 882.78 352.4 877.847 352.4C873.18 352.4 868.847 351.533 864.847 349.8C860.98 347.933 857.58 345.467 854.647 342.4C851.847 339.333 849.647 335.733 848.047 331.6C846.447 327.333 845.647 322.867 845.647 318.2C845.647 313.533 846.38 309.2 847.847 305.2C849.314 301.067 851.447 297.467 854.247 294.4C857.047 291.333 860.38 288.933 864.247 287.2C868.247 285.333 872.647 284.4 877.447 284.4C882.247 284.4 886.58 285.333 890.447 287.2C894.447 288.933 897.847 291.4 900.647 294.6C903.58 297.667 905.847 301.267 907.447 305.4C909.047 309.533 909.847 313.933 909.847 318.6Z" fill="#780EFF"/>
<rect x="477" y="567" width="78" height="137" fill="#7C7C7C"/>
<rect x="348" y="704" width="336" height="20" fill="#7C7C7C"/>
<line x1="265" y1="458.5" x2="768" y2="458.5" stroke="white"/>
<circle cx="264.5" cy="458.5" r="3.5" fill="white"/>
</svg>
